<?xml version="1.0" encoding="utf-8"?>
<!-- Generator: Adobe Illustrator 24.1.1, SVG Export Plug-In . SVG Version: 6.00 Build 0)  -->
<svg version="1.1" id="Layer_1" xmlns="http://www.w3.org/2000/svg" xmlns:xlink="http://www.w3.org/1999/xlink" x="0px" y="0px"
	 viewBox="0 0 612 792" style="enable-background:new 0 0 612 792;" xml:space="preserve">
<style type="text/css">
	.st0{enable-background:new    ;}
	.st1{fill:#303030;}
	.st2{fill:#232323;}
</style>
<g class="st0">
	<path class="st1" d="M68.9,408.7v-11h-11v-11v-11h-11v-11v-11h-11v-11v-11h11h11v11v11h11v11v11h11v-11v-11h11v-11v-11h11h11v11v11
		h-11v11v11h-11v11v11h-11v11H68.9z"/>
	<path class="st1" d="M189.9,408.7h-11v-11v-11h-11h-11h-11v11v11h-11h-11v-11v-11v-11v-11v-11v-11v-11h11h11h11h11h11h11v11h11v11
		v11v11h-11v11h11v11v11H189.9z M167.9,364.7h11v-11h-11h-11h-11v11h11H167.9z"/>
	<path class="st1" d="M277.9,408.7h-11h-11h-11h-11h-11v-11h-11v-11v-11v-11v-11v-11h11v-11h11h11h11h11h11h11v11v11h-11h-11h-11
		h-11h-11v11v11v11h11h11h11v-11h-11h-11v-11h11h11h11h11v11v11v11v11H277.9z"/>
	<path class="st1" d="M365.9,408.7h-11h-11h-11h-11h-11h-11v-11v-11v-11v-11v-11v-11v-11h11h11v11v11v11v11v11h11h11h11h11h11v11v11
		H365.9z"/>
	<path class="st1" d="M453.9,408.7h-11v-11v-11h-11h-11h-11v11v11h-11h-11v-11v-11v-11v-11v-11v-11h11v-11h11h11h11h11h11v11h11v11
		v11v11v11v11v11H453.9z M431.9,364.7h11v-11h-11h-11h-11v11h11H431.9z"/>
	<path class="st1" d="M530.9,408.7h-11h-11h-11h-11h-11v-11v-11v-11v-11v-11v-11v-11h11h11h11h11h11h11v11h11v11v11h-11v11h11v11v11
		h-11v11H530.9z M519.9,364.7h11v-11h-11h-11h-11v11h11H519.9z M519.9,386.7h11v-11h-11h-11h-11v11h11H519.9z"/>
</g>
<g class="st0">
	<path class="st2" d="M584,316.5c0,6.1-2.2,11.3-6.5,15.6c-4.3,4.3-9.5,6.4-15.6,6.4s-11.3-2.1-15.6-6.4c-4.3-4.3-6.4-9.5-6.4-15.6
		s2.1-11.3,6.4-15.6c4.3-4.3,9.5-6.4,15.6-6.4s11.3,2.1,15.6,6.4C581.9,305.2,584,310.4,584,316.5z M581.6,316.5
		c0-5.4-1.9-10-5.7-13.9s-8.4-5.9-13.9-5.9c-5.4,0-10.1,2-13.9,5.9c-3.8,3.9-5.7,8.5-5.7,13.9s1.9,10,5.7,13.9
		c3.8,3.9,8.4,5.9,13.9,5.9c5.4,0,10.1-2,13.9-5.9S581.6,321.9,581.6,316.5z M576.4,327.8h-7.1c-1.6-2.2-2.9-4.1-4.1-5.6
		c-1.2-1.5-2.3-3-3.6-4.5H559v6.5c0,0.4,0.1,0.7,0.2,1c0.1,0.3,0.4,0.5,0.8,0.7c0.2,0.1,0.6,0.1,1.1,0.2c0.6,0.1,1,0.1,1.3,0.2v1.4
		h-10.9v-1.4c0.3,0,0.7-0.1,1.2-0.2c0.5-0.1,0.9-0.1,1.1-0.2c0.4-0.2,0.6-0.4,0.8-0.6c0.2-0.3,0.2-0.6,0.2-1v-16
		c0-0.4-0.1-0.7-0.2-1c-0.1-0.3-0.4-0.5-0.8-0.7c-0.3-0.1-0.7-0.2-1.2-0.3s-0.8-0.2-1.2-0.2v-1.4h12.3c0.9,0,1.8,0.1,2.7,0.3
		s1.7,0.5,2.4,0.9c0.7,0.4,1.3,1,1.7,1.7c0.4,0.7,0.7,1.6,0.7,2.6c0,1.8-0.5,3.2-1.5,4.3c-1,1-2.4,1.8-4.4,2.3
		c1.3,1.6,2.5,3,3.4,4.1c0.9,1.1,1.7,2.2,2.5,3.1c0.5,0.6,0.9,1,1.4,1.3s0.9,0.5,1.3,0.6c0.3,0.1,0.7,0.2,1.2,0.3s0.8,0.1,1.1,0.2
		V327.8z M566.8,310.7c0-1.4-0.4-2.4-1.2-3.1s-2.1-1.1-3.7-1.1H559v9.4h2.2c1.7,0,3.1-0.5,4.1-1.4
		C566.3,313.6,566.8,312.3,566.8,310.7z"/>
</g>
</svg>
